<?xml version="1.0" encoding="UTF-8"?>
<svg width="32px" height="32px" viewBox="0 0 32 32" version="1.1" xmlns="http://www.w3.org/2000/svg" xmlns:xlink="http://www.w3.org/1999/xlink">
    <title>star</title>
    <g id="Symbols" stroke="none" stroke-width="1" fill="none" fill-rule="evenodd">
        <g id="star-filled" fill="#FFC93D" fill-rule="nonzero">
            <g id="star">
                <path d="M14.6035695,5.204325 C15.2998695,3.598565 17.5770695,3.598555 18.2733695,5.204315 L20.3136695,9.909305 C20.6034695,10.577615 21.2336695,11.035555 21.9587695,11.104655 L27.0639695,11.591055 C28.8063695,11.757055 29.5100695,13.922855 28.1980695,15.081255 L24.3537695,18.475555 C23.8077695,18.957755 23.5669695,19.698655 23.7253695,20.409655 L24.8402695,25.415255 C25.2208695,27.123655 23.3785695,28.462155 21.8713695,27.572355 L17.4552695,24.965155 C16.8279695,24.594855 16.0489695,24.594855 15.4216695,24.965155 L11.0055695,27.572355 C9.4983995,28.462155 7.6561095,27.123655 8.0366295,25.415255 L9.1515495,20.409655 C9.3099195,19.698655 9.0691895,18.957755 8.5231495,18.475555 L4.6789095,15.081255 C3.3669195,13.922855 4.0706095,11.757055 5.8129495,11.591055 L10.9181695,11.104655 C11.6432695,11.035555 12.2734695,10.577615 12.5632695,9.909305 L14.6035695,5.204325 Z" id="Path"></path>
            </g>
        </g>
    </g>
</svg>